<mxfile host="app.diagrams.net" modified="2020-05-11T02:37:08.944Z" agent="5.0 (Windows NT 10.0; Win64; x64) AppleWebKit/537.36 (KHTML, like Gecko) Chrome/80.0.3987.122 Safari/537.36" etag="uaYnKML1yvtJi0EXH7Zj" version="13.0.9" type="github">
  <diagram id="5A1YQ_xeDMBMNBrQjHtv" name="Page-1">
    <mxGraphModel dx="782" dy="437" grid="1" gridSize="10" guides="1" tooltips="1" connect="1" arrows="1" fold="1" page="1" pageScale="1" pageWidth="827" pageHeight="1169" math="0" shadow="0">
      <root>
        <mxCell id="0" />
        <mxCell id="1" parent="0" />
        <mxCell id="GUAbIByXM7yIVpslijOQ-3" style="edgeStyle=orthogonalEdgeStyle;rounded=0;orthogonalLoop=1;jettySize=auto;html=1;entryX=0;entryY=0.5;entryDx=0;entryDy=0;" edge="1" parent="1" source="GUAbIByXM7yIVpslijOQ-1" target="GUAbIByXM7yIVpslijOQ-6">
          <mxGeometry relative="1" as="geometry">
            <mxPoint x="260" y="125" as="targetPoint" />
          </mxGeometry>
        </mxCell>
        <mxCell id="GUAbIByXM7yIVpslijOQ-5" style="edgeStyle=orthogonalEdgeStyle;rounded=0;orthogonalLoop=1;jettySize=auto;html=1;" edge="1" parent="1" source="GUAbIByXM7yIVpslijOQ-1" target="GUAbIByXM7yIVpslijOQ-4">
          <mxGeometry relative="1" as="geometry" />
        </mxCell>
        <mxCell id="GUAbIByXM7yIVpslijOQ-8" style="edgeStyle=orthogonalEdgeStyle;rounded=0;orthogonalLoop=1;jettySize=auto;html=1;exitX=0.5;exitY=1;exitDx=0;exitDy=0;" edge="1" parent="1" source="GUAbIByXM7yIVpslijOQ-1" target="GUAbIByXM7yIVpslijOQ-7">
          <mxGeometry relative="1" as="geometry" />
        </mxCell>
        <mxCell id="GUAbIByXM7yIVpslijOQ-9" value="分片" style="edgeLabel;html=1;align=center;verticalAlign=middle;resizable=0;points=[];" vertex="1" connectable="0" parent="GUAbIByXM7yIVpslijOQ-8">
          <mxGeometry x="-0.3747" y="1" relative="1" as="geometry">
            <mxPoint as="offset" />
          </mxGeometry>
        </mxCell>
        <mxCell id="GUAbIByXM7yIVpslijOQ-1" value="调度中心" style="whiteSpace=wrap;html=1;aspect=fixed;" vertex="1" parent="1">
          <mxGeometry x="100" y="180" width="80" height="80" as="geometry" />
        </mxCell>
        <mxCell id="GUAbIByXM7yIVpslijOQ-4" value="并行调度" style="rounded=1;whiteSpace=wrap;html=1;" vertex="1" parent="1">
          <mxGeometry x="280" y="240" width="120" height="60" as="geometry" />
        </mxCell>
        <mxCell id="GUAbIByXM7yIVpslijOQ-6" value="&lt;span&gt;串行调度工作流&lt;/span&gt;" style="rounded=1;whiteSpace=wrap;html=1;" vertex="1" parent="1">
          <mxGeometry x="280" y="90" width="120" height="60" as="geometry" />
        </mxCell>
        <mxCell id="GUAbIByXM7yIVpslijOQ-7" value="工人" style="rounded=1;whiteSpace=wrap;html=1;" vertex="1" parent="1">
          <mxGeometry x="120" y="370" width="110" height="60" as="geometry" />
        </mxCell>
        <mxCell id="GUAbIByXM7yIVpslijOQ-11" value="可执行脚本" style="rounded=1;whiteSpace=wrap;html=1;" vertex="1" parent="1">
          <mxGeometry x="294" y="370" width="120" height="60" as="geometry" />
        </mxCell>
        <mxCell id="GUAbIByXM7yIVpslijOQ-12" value="环境依赖程序" style="rounded=1;whiteSpace=wrap;html=1;" vertex="1" parent="1">
          <mxGeometry x="300" y="450" width="120" height="60" as="geometry" />
        </mxCell>
      </root>
    </mxGraphModel>
  </diagram>
</mxfile>
